<svg width="180" height="48" viewBox="0 0 180 48" fill="none" xmlns="http://www.w3.org/2000/svg">
<path d="M0.820312 1.40625H7.80469V16.125H22.9922V1.40625H29.9766V36H22.9922V21.5859H7.80469V36H0.820312V1.40625ZM37.3359 28.125V18.3047C37.3359 15.7422 38.3047 13.7656 40.2422 12.375C42.1953 10.9844 44.8047 10.2891 48.0703 10.2891C51.9453 10.2891 54.6953 11.0312 56.3203 12.5156C57.9609 14 58.7812 16.0078 58.7812 18.5391V24.6328H43.7109V28.7344C43.7109 30.2188 44.0938 31.1562 44.8594 31.5469C45.625 31.9219 46.7656 32.1094 48.2812 32.1094C50.0938 32.1094 51.3047 31.8594 51.9141 31.3594C52.5391 30.8438 52.8516 29.8125 52.8516 28.2656H58.7578C58.7578 31.375 57.8828 33.5312 56.1328 34.7344C54.3828 35.9375 51.7266 36.5391 48.1641 36.5391C46.1172 36.5391 44.2734 36.2891 42.6328 35.7891C40.9922 35.2734 39.6953 34.4062 38.7422 33.1875C37.8047 31.9688 37.3359 30.2812 37.3359 28.125ZM52.7578 20.7422V17.7891C52.7578 16.8516 52.5547 16.1719 52.1484 15.75C51.7578 15.3125 51.2188 15.0391 50.5312 14.9297C49.8594 14.8047 49.0938 14.7422 48.2344 14.7422C46.9531 14.7422 45.875 14.9375 45 15.3281C44.1406 15.7031 43.7109 16.5625 43.7109 17.9062V20.7422H52.7578ZM71.2969 36.5391C69.1406 36.5391 67.3828 35.9141 66.0234 34.6641C64.6797 33.4141 64.0078 31.75 64.0078 29.6719C64.0078 28.4844 64.25 27.4297 64.7344 26.5078C65.2188 25.5859 66.1016 24.7344 67.3828 23.9531C68.6641 23.1562 70.5 22.3828 72.8906 21.6328C74.8438 21.0078 76.2812 20.4297 77.2031 19.8984C78.1406 19.3672 78.6094 18.6641 78.6094 17.7891C78.6094 16.7734 78.3047 16.0156 77.6953 15.5156C77.1016 15 76.0859 14.7422 74.6484 14.7422C73.0547 14.7422 72 15.0547 71.4844 15.6797C70.9844 16.3047 70.7344 17.1016 70.7344 18.0703V19.0547H64.7578V18.3047C64.7578 15.8672 65.5703 13.9219 67.1953 12.4688C68.8203 11.0156 71.3516 10.2891 74.7891 10.2891C77.3047 10.2891 79.2969 10.6406 80.7656 11.3438C82.2344 12.0469 83.2891 13.0391 83.9297 14.3203C84.5703 15.5859 84.8906 17.0859 84.8906 18.8203V28.7812C84.8906 29.9219 85.0312 30.6719 85.3125 31.0312C85.6094 31.375 86.1484 31.5469 86.9297 31.5469L86.6719 36.1875H85.3359C83.5859 36.1875 82.2266 35.9453 81.2578 35.4609C80.2891 34.9766 79.5781 34.2266 79.125 33.2109C78.4531 34.1016 77.4375 34.8828 76.0781 35.5547C74.7344 36.2109 73.1406 36.5391 71.2969 36.5391ZM73.4297 32.2969C74.2109 32.2969 75.125 32.0781 76.1719 31.6406C77.2188 31.2031 78.0312 30.5312 78.6094 29.625V23.25C78.1875 23.5938 77.5156 23.9766 76.5938 24.3984C75.6719 24.8047 74.6797 25.2031 73.6172 25.5938C72.2266 26.1094 71.3125 26.6797 70.875 27.3047C70.4375 27.9297 70.2188 28.6016 70.2188 29.3203C70.2188 30.3359 70.5156 31.0859 71.1094 31.5703C71.7031 32.0547 72.4766 32.2969 73.4297 32.2969ZM92.7422 27.7266V0.492188H99.1172V27.6328C99.1172 29.0078 99.4375 30.0078 100.078 30.6328C100.734 31.2422 101.914 31.5469 103.617 31.5469H104.414L103.922 36.2812H101.25C98.4531 36.2812 96.3359 35.6484 94.8984 34.3828C93.4609 33.1016 92.7422 30.8828 92.7422 27.7266ZM110.32 27.8672V14.8828H106.992V10.8281H110.508L111.094 2.74219H116.695V10.8281H122.672V14.8828H116.695V27.3984C116.695 28.9609 117.031 30.0469 117.703 30.6562C118.391 31.25 119.695 31.5469 121.617 31.5469H122.836L122.602 36.2812H120.867C118.336 36.2812 116.297 36.0312 114.75 35.5312C113.203 35.0312 112.078 34.1719 111.375 32.9531C110.672 31.7188 110.32 30.0234 110.32 27.8672ZM127.43 10.8281H133.781V36H127.43V10.8281ZM127.383 0.492188H133.805V6.70312H127.383V0.492188ZM142.078 14.8828H138.727V10.8281H142.078V9.63281C142.078 6.64844 142.742 4.375 144.07 2.8125C145.414 1.25 147.578 0.46875 150.562 0.46875H153.516L153.68 4.89844H151.711C150.336 4.89844 149.445 5.24219 149.039 5.92969C148.648 6.60156 148.453 7.35938 148.453 8.20312V10.8281H153.469V14.8828H148.453V36H142.078V14.8828ZM158.227 47.3672L157.758 42.0938C159.336 41.8594 160.695 41.2656 161.836 40.3125C162.992 39.375 163.93 37.9609 164.648 36.0703L165.047 35.0391L155.555 10.8281H161.906L168.164 27.8906L173.461 10.8281H179.812L171.117 35.7188C169.758 39.6094 168.023 42.4297 165.914 44.1797C163.82 45.9453 161.258 47.0078 158.227 47.3672Z" fill="black"/>
</svg>
